<svg width="1036" height="240" viewBox="0 0 1036 240" fill="none" xmlns="http://www.w3.org/2000/svg">
<g clip-path="url(#clip0_3326_18007)">
<rect x="0.000976562" y="-418.001" width="1077" height="1077" fill="#0E0E0E"/>
<path d="M1078 659V-418.001L0.000976562 659H1078Z" fill="#D7FC36"/>
<path d="M539.5 659C539.5 588.152 525.546 517.998 498.434 452.542C471.321 387.087 431.582 327.613 381.485 277.516C331.388 227.419 271.914 187.68 206.459 160.567C141.003 133.455 70.8491 119.5 0.000976562 119.5L0.00100014 659H539.5Z" fill="#F2F3ED"/>
<path d="M575.714 83.287C509.753 17.3257 457.429 -60.9817 421.732 -147.164C386.034 -233.347 367.66 -325.717 367.66 -419L1078 -419L575.714 83.287Z" fill="#5835FE"/>
<path d="M1078 291.341C889.607 291.341 708.929 216.502 575.714 83.287L1078 -419L1078 291.341Z" fill="#0E0E0E"/>
</g>
<defs>
<clipPath id="clip0_3326_18007">
<rect width="1036" height="240" fill="white" transform="translate(0.000976562)"/>
</clipPath>
</defs>
</svg>
