<svg width="168" height="168" viewBox="0 0 168 168" fill="none" xmlns="http://www.w3.org/2000/svg">
<rect x="2.00098" y="2" width="164" height="164" rx="82" fill="#EAEBE7"/>
<path d="M83.9876 97.2275C66.0167 97.2275 50.6667 100.061 50.6667 111.394C50.6667 122.732 65.9209 125.665 83.9876 125.665C101.958 125.665 117.308 122.836 117.308 111.498C117.308 100.161 102.058 97.2275 83.9876 97.2275Z" fill="#8D8D8D"/>
<path d="M83.9876 86.432C96.2293 86.432 106.038 76.6195 106.038 64.382C106.038 52.1445 96.2293 42.332 83.9876 42.332C71.7501 42.332 61.9376 52.1445 61.9376 64.382C61.9376 76.6195 71.7501 86.432 83.9876 86.432Z" fill="#8D8D8D"/>
<rect x="2.00098" y="2" width="164" height="164" rx="82" stroke="#EAEBE7" stroke-width="4"/>
</svg>
