<svg width="22" height="19" viewBox="0 0 22 19" fill="none" xmlns="http://www.w3.org/2000/svg">
<path d="M10.6154 6.92345C9.91157 6.92345 9.23655 7.16658 8.73886 7.59936C8.24117 8.03214 7.96157 8.61911 7.96157 9.23114C7.96157 9.84318 8.24117 10.4302 8.73886 10.8629C9.23655 11.2957 9.91157 11.5388 10.6154 11.5388C11.3193 11.5388 11.9943 11.2957 12.492 10.8629C12.9897 10.4302 13.2693 9.84318 13.2693 9.23114C13.2693 8.61911 12.9897 8.03214 12.492 7.59936C11.9943 7.16658 11.3193 6.92345 10.6154 6.92345ZM10.6154 13.0773C9.44234 13.0773 8.31731 12.6721 7.48782 11.9508C6.65834 11.2295 6.19234 10.2512 6.19234 9.23114C6.19234 8.21108 6.65834 7.2328 7.48782 6.5115C8.31731 5.79021 9.44234 5.38499 10.6154 5.38499C11.7885 5.38499 12.9135 5.79021 13.743 6.5115C14.5725 7.2328 15.0385 8.21108 15.0385 9.23114C15.0385 10.2512 14.5725 11.2295 13.743 11.9508C12.9135 12.6721 11.7885 13.0773 10.6154 13.0773ZM10.6154 3.46191C6.19234 3.46191 2.41503 5.85422 0.884644 9.23114C2.41503 12.6081 6.19234 15.0004 10.6154 15.0004C15.0385 15.0004 18.8158 12.6081 20.3462 9.23114C18.8158 5.85422 15.0385 3.46191 10.6154 3.46191Z" fill="#8D8D8D"/>
<path d="M20 2.5L1.5 16" stroke="#8D8D8D" stroke-width="1.5"/>
</svg>
